# xmcd CD database file
#
# Track frame offsets:
#	150
#	25875
#	55350
#	81975
#	108225
#	148725
#	181275
#
# Disc length: 2805 seconds
#
# Revision: 0
# Processed by: cddbd v1.5.1PL0 Copyright (c) Steve Scherf et al.
# Submitted via: CDex 1.51
#
DISCID=5c0af307
DTITLE=Bennie Golson - California Message
DYEAR=1981
DGENRE=Jazz
TTITLE0=California Message
TTITLE1=Soul Talk
TTITLE2=Blues March
TTITLE3=The Berliner
TTITLE4=Whisper Not
TTITLE5=Free Again
TTITLE6=I Remember Clifford
EXTD=YEAR: 1981
EXTT0=
EXTT1=
EXTT2=
EXTT3=
EXTT4=
EXTT5=
EXTT6=
PLAYORDER=
